<?xml version="1.0" encoding="UTF-8" standalone="no"?>
<svg viewBox="0 0 50 50"
 xmlns="http://www.w3.org/2000/svg" xmlns:xlink="http://www.w3.org/1999/xlink"  version="1.2" baseProfile="tiny">
<title>Qt SVG Document</title>
<desc>Generated with Qt</desc>
<defs>
</defs>
<g fill="none" stroke="black" stroke-width="1" fill-rule="evenodd" stroke-linecap="square" stroke-linejoin="bevel" >

<g fill="#a32066" fill-opacity="1" stroke="none" transform="matrix(0.0548336,0,0,-0.0548338,-0.161987,50.2673)"
font-family="Roboto" font-size="10" font-weight="400" font-style="normal" 
opacity="0.5" >
<path vector-effect="none" fill-rule="evenodd" d="M458.879,4.875 C710.679,4.875 914.804,208.996 914.804,460.8 C914.804,712.596 710.679,916.721 458.879,916.721 C207.079,916.721 2.95417,712.596 2.95417,460.8 C2.95417,208.996 207.079,4.875 458.879,4.875 "/>
</g>

<g fill="#d52a85" fill-opacity="1" stroke="none" transform="matrix(0.0548336,0,0,-0.0548338,-0.161987,50.2673)"
font-family="Roboto" font-size="10" font-weight="400" font-style="normal" 
opacity="0.5" >
<path vector-effect="none" fill-rule="evenodd" d="M458.879,43.65 C689.263,43.65 876.029,230.413 876.029,460.8 C876.029,691.179 689.263,877.946 458.879,877.946 C228.496,877.946 41.7292,691.179 41.7292,460.8 C41.7292,230.413 228.496,43.65 458.879,43.65 "/>
</g>

<g fill="none" stroke="#000000" stroke-opacity="1" stroke-width="1" stroke-linecap="square" stroke-linejoin="bevel" transform="matrix(1,0,0,1,0,0)"
font-family="Roboto" font-size="10" font-weight="400" font-style="normal" 
>
</g>
</g>
</svg>
