<?xml version="1.0" encoding="UTF-8" standalone="no"?>
<svg viewBox="0 0 50 50"
 xmlns="http://www.w3.org/2000/svg" xmlns:xlink="http://www.w3.org/1999/xlink"  version="1.2" baseProfile="tiny">
<title>Qt SVG Document</title>
<desc>Generated with Qt</desc>
<defs>
</defs>
<g fill="none" stroke="black" stroke-width="1" fill-rule="evenodd" stroke-linecap="square" stroke-linejoin="bevel" >

<g fill="#a32066" fill-opacity="1" stroke="none" transform="matrix(0.0548336,0,0,-0.0548336,-0.325575,50.2543)"
font-family="Roboto" font-size="10" font-weight="400" font-style="normal" 
>
<path vector-effect="none" fill-rule="evenodd" d="M461.867,4.6375 C713.663,4.6375 917.788,208.763 917.788,460.562 C917.788,712.363 713.663,916.487 461.867,916.487 C210.063,916.487 5.9375,712.363 5.9375,460.562 C5.9375,208.763 210.063,4.6375 461.867,4.6375 "/>
</g>

<g fill="#d52a85" fill-opacity="1" stroke="none" transform="matrix(0.0548336,0,0,-0.0548336,-0.325575,50.2543)"
font-family="Roboto" font-size="10" font-weight="400" font-style="normal" 
>
<path vector-effect="none" fill-rule="evenodd" d="M461.867,43.4125 C692.245,43.4125 879.008,230.179 879.008,460.562 C879.008,690.946 692.245,877.709 461.867,877.709 C231.479,877.709 44.7167,690.946 44.7167,460.562 C44.7167,230.179 231.479,43.4125 461.867,43.4125 "/>
</g>

<g fill="#fefefe" fill-opacity="1" stroke="none" transform="matrix(0.0548336,0,0,-0.0548336,-0.325575,50.2543)"
font-family="Roboto" font-size="10" font-weight="400" font-style="normal" 
>
<path vector-effect="none" fill-rule="evenodd" d="M246.821,299.191 L623.233,675.604 C637.801,690.171 661.633,690.171 676.208,675.604 L676.905,674.9 C691.475,660.334 691.475,636.5 676.909,621.93 L300.496,245.521 C285.925,230.95 262.092,230.95 247.525,245.521 L246.821,246.217 C232.254,260.787 232.254,284.625 246.821,299.191 "/>
</g>

<g fill="#fefefe" fill-opacity="1" stroke="none" transform="matrix(0.0548336,0,0,-0.0548336,-0.325575,50.2543)"
font-family="Roboto" font-size="10" font-weight="400" font-style="normal" 
>
<path vector-effect="none" fill-rule="evenodd" d="M300.496,675.604 L676.905,299.191 C691.471,284.625 691.471,260.787 676.905,246.221 L676.204,245.521 C661.633,230.95 637.801,230.95 623.233,245.521 L246.821,621.93 C232.25,636.5 232.25,660.334 246.821,674.905 L247.521,675.604 C262.092,690.175 285.925,690.175 300.496,675.604 "/>
</g>

<g fill="none" stroke="#000000" stroke-opacity="1" stroke-width="1" stroke-linecap="square" stroke-linejoin="bevel" transform="matrix(1,0,0,1,0,0)"
font-family="Roboto" font-size="10" font-weight="400" font-style="normal" 
>
</g>
</g>
</svg>
