<?xml version="1.0" encoding="UTF-8" standalone="no"?>
<svg viewBox="0 0 50 50"
 xmlns="http://www.w3.org/2000/svg" xmlns:xlink="http://www.w3.org/1999/xlink"  version="1.2" baseProfile="tiny">
<title>Qt SVG Document</title>
<desc>Generated with Qt</desc>
<defs>
</defs>
<g fill="none" stroke="black" stroke-width="1" fill-rule="evenodd" stroke-linecap="square" stroke-linejoin="bevel" >

<g fill="#277cc6" fill-opacity="1" stroke="none" transform="matrix(0.0548336,0,0,-0.0548336,-0.559759,50.2543)"
font-family="Roboto" font-size="10" font-weight="400" font-style="normal" 
>
<path vector-effect="none" fill-rule="evenodd" d="M466.138,4.6375 C717.934,4.6375 922.059,208.763 922.059,460.562 C922.059,712.363 717.934,916.487 466.138,916.487 C214.334,916.487 10.2083,712.363 10.2083,460.562 C10.2083,208.763 214.334,4.6375 466.138,4.6375 "/>
</g>

<g fill="#2a85d5" fill-opacity="1" stroke="none" transform="matrix(0.0548336,0,0,-0.0548336,-0.559759,50.2543)"
font-family="Roboto" font-size="10" font-weight="400" font-style="normal" 
>
<path vector-effect="none" fill-rule="evenodd" d="M466.138,43.4125 C696.521,43.4125 883.283,230.179 883.283,460.562 C883.283,690.946 696.521,877.709 466.138,877.709 C235.75,877.709 48.9875,690.946 48.9875,460.562 C48.9875,230.179 235.75,43.4125 466.138,43.4125 "/>
</g>

<g fill="#fefefe" fill-opacity="1" stroke="none" transform="matrix(0.0548336,0,0,-0.0548336,-0.559759,50.2543)"
font-family="Roboto" font-size="10" font-weight="400" font-style="normal" 
>
<path vector-effect="none" fill-rule="evenodd" d="M342.791,693.209 L627.804,693.209 C665.755,693.209 696.809,662.155 696.809,624.201 L696.809,339.191 L342.791,693.209 M590.604,227.917 L304.467,227.917 C266.512,227.917 235.462,258.966 235.462,296.921 L235.462,583.058 L590.604,227.917"/>
</g>

<g fill="none" stroke="#000000" stroke-opacity="1" stroke-width="1" stroke-linecap="square" stroke-linejoin="bevel" transform="matrix(1,0,0,1,0,0)"
font-family="Roboto" font-size="10" font-weight="400" font-style="normal" 
>
</g>
</g>
</svg>
