<?xml version="1.0" encoding="UTF-8" standalone="no"?>
<svg viewBox="0 0 50 50"
 xmlns="http://www.w3.org/2000/svg" xmlns:xlink="http://www.w3.org/1999/xlink"  version="1.2" baseProfile="tiny">
<title>Qt SVG Document</title>
<desc>Generated with Qt</desc>
<defs>
</defs>
<g fill="none" stroke="black" stroke-width="1" fill-rule="evenodd" stroke-linecap="square" stroke-linejoin="bevel" >

<g fill="#1399a0" fill-opacity="1" stroke="none" transform="matrix(0.0548333,0,0,-0.0548338,-0.491443,50.5641)"
font-family="Roboto" font-size="10" font-weight="400" font-style="normal" 
>
<path vector-effect="none" fill-rule="evenodd" d="M464.887,10.2875 C716.691,10.2875 920.817,214.413 920.817,466.208 C920.817,718.009 716.691,922.133 464.887,922.133 C213.088,922.133 8.9625,718.009 8.9625,466.208 C8.9625,214.413 213.088,10.2875 464.887,10.2875 "/>
</g>

<g fill="#1de9bf" fill-opacity="1" stroke="none" transform="matrix(0.0548333,0,0,-0.0548338,-0.491443,50.5641)"
font-family="Roboto" font-size="10" font-weight="400" font-style="normal" 
>
<path vector-effect="none" fill-rule="evenodd" d="M464.887,49.0625 C695.275,49.0625 882.037,235.829 882.037,466.208 C882.037,696.596 695.275,883.358 464.887,883.358 C234.505,883.358 47.7417,696.596 47.7417,466.208 C47.7417,235.829 234.505,49.0625 464.887,49.0625 "/>
</g>

<g fill="#fefefe" fill-opacity="1" stroke="none" transform="matrix(0.0548333,0,0,0.0548338,-0.491443,50.5641)"
font-family="Roboto" font-size="10" font-weight="400" font-style="normal" 
opacity="0.9" >
<path vector-effect="none" fill-rule="evenodd" d="M160.183,-466.556 C160.183,-486.196 175.19,-502.117 193.701,-502.117 L736.075,-502.117 C754.586,-502.117 769.592,-486.196 769.592,-466.556 L769.592,-465.837 C769.592,-446.197 754.586,-430.276 736.075,-430.276 L193.701,-430.276 C175.19,-430.276 160.183,-446.197 160.183,-465.837 L160.183,-466.556"/>
</g>

<g fill="none" stroke="#000000" stroke-opacity="1" stroke-width="1" stroke-linecap="square" stroke-linejoin="bevel" transform="matrix(1,0,0,1,0,0)"
font-family="Roboto" font-size="10" font-weight="400" font-style="normal" 
>
</g>
</g>
</svg>
