<?xml version="1.0" encoding="UTF-8" standalone="no"?>
<svg viewBox="0 0 50 50"
 xmlns="http://www.w3.org/2000/svg" xmlns:xlink="http://www.w3.org/1999/xlink"  version="1.2" baseProfile="tiny">
<title>Qt SVG Document</title>
<desc>Generated with Qt</desc>
<defs>
</defs>
<g fill="none" stroke="black" stroke-width="1" fill-rule="evenodd" stroke-linecap="square" stroke-linejoin="bevel" >

<g fill="#1399a0" fill-opacity="1" stroke="none" transform="matrix(0.0548336,0,0,-0.0548338,-0.395944,50.2673)"
font-family="Roboto" font-size="10" font-weight="400" font-style="normal" 
opacity="0.5" >
<path vector-effect="none" fill-rule="evenodd" d="M463.146,4.875 C714.95,4.875 919.071,208.996 919.071,460.8 C919.071,712.596 714.95,916.721 463.146,916.721 C211.346,916.721 7.22083,712.596 7.22083,460.8 C7.22083,208.996 211.346,4.875 463.146,4.875 "/>
</g>

<g fill="#1de9bf" fill-opacity="1" stroke="none" transform="matrix(0.0548336,0,0,-0.0548338,-0.395944,50.2673)"
font-family="Roboto" font-size="10" font-weight="400" font-style="normal" 
opacity="0.5" >
<path vector-effect="none" fill-rule="evenodd" d="M463.146,43.65 C693.534,43.65 880.295,230.413 880.295,460.8 C880.295,691.179 693.534,877.946 463.146,877.946 C232.763,877.946 46,691.179 46,460.8 C46,230.413 232.763,43.65 463.146,43.65 "/>
</g>

<g fill="none" stroke="#000000" stroke-opacity="1" stroke-width="1" stroke-linecap="square" stroke-linejoin="bevel" transform="matrix(1,0,0,1,0,0)"
font-family="Roboto" font-size="10" font-weight="400" font-style="normal" 
>
</g>
</g>
</svg>
