<?xml version="1.0" encoding="UTF-8" standalone="no"?>
<svg viewBox="0 0 50 50"
 xmlns="http://www.w3.org/2000/svg" xmlns:xlink="http://www.w3.org/1999/xlink"  version="1.2" baseProfile="tiny">
<title>Qt SVG Document</title>
<desc>Generated with Qt</desc>
<defs>
</defs>
<g fill="none" stroke="black" stroke-width="1" fill-rule="evenodd" stroke-linecap="square" stroke-linejoin="bevel" >

<g fill="#1399a0" fill-opacity="1" stroke="none" transform="matrix(0.0548336,0,0,-0.0548336,-0.327859,50.4309)"
font-family="Roboto" font-size="10" font-weight="400" font-style="normal" 
>
<path vector-effect="none" fill-rule="evenodd" d="M461.904,7.85834 C713.705,7.85834 917.829,211.983 917.829,463.788 C917.829,715.583 713.705,919.709 461.904,919.709 C210.105,919.709 5.97917,715.583 5.97917,463.788 C5.97917,211.983 210.105,7.85834 461.904,7.85834 "/>
</g>

<g fill="#1de9bf" fill-opacity="1" stroke="none" transform="matrix(0.0548336,0,0,-0.0548336,-0.327859,50.4309)"
font-family="Roboto" font-size="10" font-weight="400" font-style="normal" 
>
<path vector-effect="none" fill-rule="evenodd" d="M461.904,46.6375 C692.288,46.6375 879.05,233.401 879.05,463.788 C879.05,694.166 692.288,880.929 461.904,880.929 C231.521,880.929 44.7541,694.166 44.7541,463.788 C44.7541,233.401 231.521,46.6375 461.904,46.6375 "/>
</g>

<g fill="none" stroke="#000000" stroke-opacity="1" stroke-width="1" stroke-linecap="square" stroke-linejoin="bevel" transform="matrix(1,0,0,1,0,0)"
font-family="Roboto" font-size="10" font-weight="400" font-style="normal" 
>
</g>
</g>
</svg>
